<?xml version="1.0" encoding="utf-8" standalone="no"?>
<!DOCTYPE svg PUBLIC "-//W3C//DTD SVG 1.1//EN"
  "http://www.w3.org/Graphics/SVG/1.1/DTD/svg11.dtd">
<svg xmlns:xlink="http://www.w3.org/1999/xlink" width="498.228391pt" height="244.476pt" viewBox="0 0 498.228391 244.476" xmlns="http://www.w3.org/2000/svg" version="1.1">
 <metadata>
  <rdf:RDF xmlns:dc="http://purl.org/dc/elements/1.1/" xmlns:cc="http://creativecommons.org/ns#" xmlns:rdf="http://www.w3.org/1999/02/22-rdf-syntax-ns#">
   <cc:Work>
    <dc:type rdf:resource="http://purl.org/dc/dcmitype/StillImage"/>
    <dc:date>2026-09-07T23:58:50.085308</dc:date>
    <dc:format>image/svg+xml</dc:format>
    <dc:creator>
     <cc:Agent>
      <dc:title>Matplotlib v3.11.1, https://matplotlib.org/</dc:title>
     </cc:Agent>
    </dc:creator>
   </cc:Work>
  </rdf:RDF>
 </metadata>
 <defs>
  <style type="text/css">*{stroke-linejoin: round; stroke-linecap: butt}</style>
 </defs>
 <g id="figure_1">
  <g id="patch_1">
   <path d="M 0 244.476 
L 498.228391 244.476 
L 498.228391 0 
L 0 0 
z
" style="fill: #ffffff"/>
  </g>
  <g id="axes_1">
   <g id="patch_2">
    <path d="M 65.986965 55.976112 
L 168.921225 55.976112 
Q 176.102685 55.976112 176.102685 51.834744 
L 176.102685 24.685776 
Q 176.102685 20.544408 168.921225 20.544408 
L 65.986965 20.544408 
Q 58.805505 20.544408 58.805505 24.685776 
L 58.805505 51.834744 
Q 58.805505 55.976112 65.986965 55.976112 
z
" clip-path="url(#pa60189b2c0)" style="fill: #edf1f3; stroke: #40505c; stroke-width: 1.15; stroke-linejoin: miter"/>
   </g>
   <g id="patch_3">
    <path d="M 197.647065 55.976112 
L 308.560725 55.976112 
Q 315.742185 55.976112 315.742185 51.834744 
L 315.742185 24.685776 
Q 315.742185 20.544408 308.560725 20.544408 
L 197.647065 20.544408 
Q 190.465605 20.544408 190.465605 24.685776 
L 190.465605 51.834744 
Q 190.465605 55.976112 197.647065 55.976112 
z
" clip-path="url(#pa60189b2c0)" style="fill: #e1eef5; stroke: #40505c; stroke-width: 1.15; stroke-linejoin: miter"/>
   </g>
   <g id="patch_4">
    <path d="M 343.271115 55.976112 
L 430.246575 55.976112 
Q 437.428035 55.976112 437.428035 51.834744 
L 437.428035 24.685776 
Q 437.428035 20.544408 430.246575 20.544408 
L 343.271115 20.544408 
Q 336.089655 20.544408 336.089655 24.685776 
L 336.089655 51.834744 
Q 336.089655 55.976112 343.271115 55.976112 
z
" clip-path="url(#pa60189b2c0)" style="fill: #f7f1e7; stroke: #40505c; stroke-width: 1.15; stroke-linejoin: miter"/>
   </g>
   <g id="patch_5">
    <path d="M 65.986965 200.923992 
L 168.921225 200.923992 
Q 176.102685 200.923992 176.102685 196.782624 
L 176.102685 109.813896 
Q 176.102685 105.672528 168.921225 105.672528 
L 65.986965 105.672528 
Q 58.805505 105.672528 58.805505 109.813896 
L 58.805505 196.782624 
Q 58.805505 200.923992 65.986965 200.923992 
z
" clip-path="url(#pa60189b2c0)" style="fill: #ffffff; stroke: #40505c; stroke-width: 1.1; stroke-linejoin: miter"/>
   </g>
   <g id="patch_6">
    <path d="M 79.551945 142.94484 
L 100.298385 142.94484 
L 100.298385 137.883168 
L 79.551945 137.883168 
z
" clip-path="url(#pa60189b2c0)" style="fill: #4c78a8; stroke: #ffffff; stroke-width: 0.45; stroke-linejoin: miter"/>
   </g>
   <g id="patch_7">
    <path d="M 128.226285 142.94484 
L 148.972725 142.94484 
L 148.972725 137.883168 
L 128.226285 137.883168 
z
" clip-path="url(#pa60189b2c0)" style="fill: #4c78a8; stroke: #ffffff; stroke-width: 0.45; stroke-linejoin: miter"/>
   </g>
   <g id="patch_8">
    <path d="M 79.551945 151.227576 
L 100.298385 151.227576 
L 100.298385 146.165904 
L 79.551945 146.165904 
z
" clip-path="url(#pa60189b2c0)" style="fill: #72b7b2; stroke: #ffffff; stroke-width: 0.45; stroke-linejoin: miter"/>
   </g>
   <g id="patch_9">
    <path d="M 128.226285 151.227576 
L 148.972725 151.227576 
L 148.972725 146.165904 
L 128.226285 146.165904 
z
" clip-path="url(#pa60189b2c0)" style="fill: #72b7b2; stroke: #ffffff; stroke-width: 0.45; stroke-linejoin: miter"/>
   </g>
   <g id="patch_10">
    <path d="M 79.551945 159.510312 
L 100.298385 159.510312 
L 100.298385 154.44864 
L 79.551945 154.44864 
z
" clip-path="url(#pa60189b2c0)" style="fill: #f2cf5b; stroke: #ffffff; stroke-width: 0.45; stroke-linejoin: miter"/>
   </g>
   <g id="patch_11">
    <path d="M 128.226285 159.510312 
L 148.972725 159.510312 
L 148.972725 154.44864 
L 128.226285 154.44864 
z
" clip-path="url(#pa60189b2c0)" style="fill: #f2cf5b; stroke: #ffffff; stroke-width: 0.45; stroke-linejoin: miter"/>
   </g>
   <g id="patch_12">
    <path d="M 79.551945 167.793048 
L 100.298385 167.793048 
L 100.298385 162.731376 
L 79.551945 162.731376 
z
" clip-path="url(#pa60189b2c0)" style="fill: #e45756; stroke: #ffffff; stroke-width: 0.45; stroke-linejoin: miter"/>
   </g>
   <g id="patch_13">
    <path d="M 128.226285 167.793048 
L 148.972725 167.793048 
L 148.972725 162.731376 
L 128.226285 162.731376 
z
" clip-path="url(#pa60189b2c0)" style="fill: #e45756; stroke: #ffffff; stroke-width: 0.45; stroke-linejoin: miter"/>
   </g>
   <g id="patch_14">
    <path d="M 79.551945 176.075784 
L 100.298385 176.075784 
L 100.298385 171.014112 
L 79.551945 171.014112 
z
" clip-path="url(#pa60189b2c0)" style="fill: #b279a2; stroke: #ffffff; stroke-width: 0.45; stroke-linejoin: miter"/>
   </g>
   <g id="patch_15">
    <path d="M 128.226285 176.075784 
L 148.972725 176.075784 
L 148.972725 171.014112 
L 128.226285 171.014112 
z
" clip-path="url(#pa60189b2c0)" style="fill: #b279a2; stroke: #ffffff; stroke-width: 0.45; stroke-linejoin: miter"/>
   </g>
   <g id="patch_16">
    <path d="M 197.647065 200.923992 
L 300.581325 200.923992 
Q 307.762785 200.923992 307.762785 196.782624 
L 307.762785 109.813896 
Q 307.762785 105.672528 300.581325 105.672528 
L 197.647065 105.672528 
Q 190.465605 105.672528 190.465605 109.813896 
L 190.465605 196.782624 
Q 190.465605 200.923992 197.647065 200.923992 
z
" clip-path="url(#pa60189b2c0)" style="fill: #ffffff; stroke: #40505c; stroke-width: 1.1; stroke-linejoin: miter"/>
   </g>
   <g id="patch_17">
    <path d="M 211.212045 142.94484 
L 231.958485 142.94484 
L 231.958485 137.883168 
L 211.212045 137.883168 
z
" clip-path="url(#pa60189b2c0)" style="fill: #4c78a8; stroke: #ffffff; stroke-width: 0.45; stroke-linejoin: miter"/>
   </g>
   <g id="patch_18">
    <path d="M 211.212045 151.227576 
L 231.958485 151.227576 
L 231.958485 146.165904 
L 211.212045 146.165904 
z
" clip-path="url(#pa60189b2c0)" style="fill: #72b7b2; stroke: #ffffff; stroke-width: 0.45; stroke-linejoin: miter"/>
   </g>
   <g id="patch_19">
    <path d="M 211.212045 159.510312 
L 231.958485 159.510312 
L 231.958485 154.44864 
L 211.212045 154.44864 
z
" clip-path="url(#pa60189b2c0)" style="fill: #f2cf5b; stroke: #ffffff; stroke-width: 0.45; stroke-linejoin: miter"/>
   </g>
   <g id="patch_20">
    <path d="M 259.886385 167.793048 
L 280.632825 167.793048 
L 280.632825 162.731376 
L 259.886385 162.731376 
z
" clip-path="url(#pa60189b2c0)" style="fill: #e45756; stroke: #ffffff; stroke-width: 0.45; stroke-linejoin: miter"/>
   </g>
   <g id="patch_21">
    <path d="M 259.886385 176.075784 
L 280.632825 176.075784 
L 280.632825 171.014112 
L 259.886385 171.014112 
z
" clip-path="url(#pa60189b2c0)" style="fill: #b279a2; stroke: #ffffff; stroke-width: 0.45; stroke-linejoin: miter"/>
   </g>
   <g id="patch_22">
    <path d="M 329.307165 200.923992 
L 432.241425 200.923992 
Q 439.422885 200.923992 439.422885 196.782624 
L 439.422885 109.813896 
Q 439.422885 105.672528 432.241425 105.672528 
L 329.307165 105.672528 
Q 322.125705 105.672528 322.125705 109.813896 
L 322.125705 196.782624 
Q 322.125705 200.923992 329.307165 200.923992 
z
" clip-path="url(#pa60189b2c0)" style="fill: #ffffff; stroke: #40505c; stroke-width: 1.1; stroke-linejoin: miter"/>
   </g>
   <g id="patch_23">
    <path d="M 342.872145 142.94484 
L 363.618585 142.94484 
L 363.618585 137.883168 
L 342.872145 137.883168 
z
" clip-path="url(#pa60189b2c0)" style="fill: #4c78a8; opacity: 0.88; stroke: #ffffff; stroke-width: 0.45; stroke-linejoin: miter"/>
   </g>
   <g id="patch_24">
    <path d="M 342.872145 151.227576 
L 363.618585 151.227576 
L 363.618585 146.165904 
L 342.872145 146.165904 
z
" clip-path="url(#pa60189b2c0)" style="fill: #72b7b2; opacity: 0.88; stroke: #ffffff; stroke-width: 0.45; stroke-linejoin: miter"/>
   </g>
   <g id="patch_25">
    <path d="M 342.872145 159.510312 
L 363.618585 159.510312 
L 363.618585 154.44864 
L 342.872145 154.44864 
z
" clip-path="url(#pa60189b2c0)" style="fill: #f2cf5b; opacity: 0.88; stroke: #ffffff; stroke-width: 0.45; stroke-linejoin: miter"/>
   </g>
   <g id="patch_26">
    <path d="M 391.546485 167.793048 
L 412.292925 167.793048 
L 412.292925 162.731376 
L 391.546485 162.731376 
z
" clip-path="url(#pa60189b2c0)" style="fill: #e45756; stroke: #ffffff; stroke-width: 0.45; stroke-linejoin: miter"/>
   </g>
   <g id="patch_27">
    <path d="M 342.872145 176.075784 
L 363.618585 176.075784 
L 363.618585 171.014112 
L 342.872145 171.014112 
z
" clip-path="url(#pa60189b2c0)" style="fill: #b279a2; opacity: 0.88; stroke: #ffffff; stroke-width: 0.45; stroke-linejoin: miter"/>
   </g>
   <g id="text_1">
    <text style="font-size: 8.3px; font-family: 'Arial'" transform="translate(80.639056 35.893787)">SOURCE COHORT</text>
    <text style="font-size: 8.3px; font-family: 'Arial'" transform="translate(72.936267 44.927332)">597 records · 52 studies</text>
   </g>
   <g id="text_2">
    <text style="font-size: 8.3px; font-family: 'Arial'" transform="translate(202.757262 35.893787)">DEVELOPMENT COHORT</text>
    <text style="font-size: 8.3px; font-family: 'Arial'" transform="translate(208.586067 44.927332)">595 records · 51 studies</text>
   </g>
   <g id="text_3">
    <text style="font-size: 7.8px; font-family: 'Arial'" transform="translate(365.37283 36.034137)">RESERVED</text>
    <text style="font-size: 7.8px; font-family: 'Arial'" transform="translate(356.301673 44.523492)">n = 2 · not scored</text>
   </g>
   <g id="patch_28">
    <path d="M 177.303492 38.26026 
Q 183.283207 38.26026 187.921282 38.26026 
" style="fill: none; stroke: #40505c; stroke-width: 1.2; stroke-linecap: round"/>
    <path d="M 184.401282 36.50026 
L 187.921282 38.26026 
L 184.401282 40.02026 
" style="fill: none; stroke: #40505c; stroke-width: 1.2; stroke-linecap: round"/>
   </g>
   <g id="patch_29">
    <path d="M 316.945183 38.26026 
Q 325.91586 38.26026 333.544897 38.26026 
" style="fill: none; stroke: #40505c; stroke-width: 1.2; stroke-linecap: round"/>
    <path d="M 330.024897 36.50026 
L 333.544897 38.26026 
L 330.024897 40.02026 
" style="fill: none; stroke: #40505c; stroke-width: 1.2; stroke-linecap: round"/>
   </g>
   <g id="patch_30">
    <path d="M 253.103895 57.515363 
Q 253.103895 76.224154 253.103895 93.647206 
" style="fill: none; stroke: #40505c; stroke-width: 1.15; stroke-linecap: round"/>
    <path d="M 254.863895 90.127206 
L 253.103895 93.647206 
L 251.343895 90.127206 
z
" style="fill: #40505c; stroke: #40505c; stroke-width: 1.15; stroke-linecap: round"/>
   </g>
   <g id="text_4">
    <text style="font-weight: 700; font-size: 8.2px; font-family: 'Arial'; text-anchor: middle; fill: #26343e" x="253.103895" y="85.42584" transform="rotate(-0 253.103895 85.42584)">ANALYSIS COHORT</text>
   </g>
   <g id="text_5">
    <text style="font-weight: 700; font-size: 8.5px; font-family: 'Arial'; text-anchor: middle; fill: #1e2d38" x="117.454095" y="118.78686" transform="rotate(-0 117.454095 118.78686)">RANDOM</text>
   </g>
   <g id="text_6">
    <text style="font-size: 6.8px; font-family: 'Arial'; text-anchor: middle; fill: #40505c" x="117.454095" y="127.299672" transform="rotate(-0 117.454095 127.299672)">sample-level folds</text>
   </g>
   <g id="text_7">
    <text style="font-size: 6px; font-family: 'Arial'; text-anchor: middle; fill: #37424a" x="117.454095" y="134.432028" transform="rotate(-0 117.454095 134.432028)">TRAIN                 TEST</text>
   </g>
   <g id="text_8">
    <text style="font-size: 5.9px; font-family: 'Arial'; fill: #26343e" transform="translate(86.46665 193.697613)">same studies can occur</text>
    <text style="font-size: 5.9px; font-family: 'Arial'; fill: #26343e" transform="translate(97.285314 200.119049)">in train and test</text>
   </g>
   <g id="text_9">
    <text style="font-weight: 700; font-size: 8.5px; font-family: 'Arial'; text-anchor: middle; fill: #1e2d38" x="249.114195" y="118.78686" transform="rotate(-0 249.114195 118.78686)">Study-grouped</text>
   </g>
   <g id="text_10">
    <text style="font-size: 6.8px; font-family: 'Arial'; text-anchor: middle; fill: #40505c" x="249.114195" y="127.299672" transform="rotate(-0 249.114195 127.299672)">study-disjoint folds</text>
   </g>
   <g id="text_11">
    <text style="font-size: 6px; font-family: 'Arial'; text-anchor: middle; fill: #37424a" x="249.114195" y="134.432028" transform="rotate(-0 249.114195 134.432028)">TRAIN                 TEST</text>
   </g>
   <g id="text_12">
    <text style="font-size: 5.9px; font-family: 'Arial'; fill: #26343e" transform="translate(219.924406 193.697613)">whole studies held out</text>
    <text style="font-size: 5.9px; font-family: 'Arial'; fill: #26343e" transform="translate(215.502633 200.119049)">matched training-size cap</text>
   </g>
   <g id="text_13">
    <text style="font-weight: 700; font-size: 8.5px; font-family: 'Arial'; text-anchor: middle; fill: #1e2d38" x="380.774295" y="118.78686" transform="rotate(-0 380.774295 118.78686)">LOSO</text>
   </g>
   <g id="text_14">
    <text style="font-size: 6.8px; font-family: 'Arial'; text-anchor: middle; fill: #40505c" x="380.774295" y="127.299672" transform="rotate(-0 380.774295 127.299672)">study-level holdout</text>
   </g>
   <g id="text_15">
    <text style="font-size: 6px; font-family: 'Arial'; text-anchor: middle; fill: #37424a" x="380.774295" y="134.432028" transform="rotate(-0 380.774295 134.432028)">TRAIN                 TEST</text>
   </g>
   <g id="text_16">
    <text style="font-size: 5.9px; font-family: 'Arial'; text-anchor: middle; fill: #26343e" x="380.774295" y="193.255401" transform="rotate(-0 380.774295 193.255401)">one complete study held out</text>
   </g>
   <g id="text_17">
    <text style="font-size: 7.1px; font-family: 'Arial'; text-anchor: middle; fill: #40505c" x="249.114195" y="222.32106" transform="rotate(-0 249.114195 222.32106)">Conceptual allocation schematic; no observations depicted. Predefined clean sensitivity removes A10/A38 before all operations (590 records · 49 studies).</text>
   </g>
  </g>
 </g>
 <defs>
  <clipPath id="pa60189b2c0">
   <rect x="49.629195" y="7.2" width="398.97" height="230.076"/>
  </clipPath>
 </defs>
</svg>
